<svg width="141" height="28" viewBox="0 0 141 28" fill="none" xmlns="http://www.w3.org/2000/svg">
<path d="M12.874 28C10.451 28 8.25433 27.4627 6.28416 26.388C4.33664 25.2899 2.79673 23.7831 1.66445 21.8673C0.554818 19.9282 0 17.7438 0 15.3141C0 12.8844 0.554818 10.7117 1.66445 8.796C2.79673 6.85691 4.33664 5.35002 6.28416 4.27535C8.25433 3.17731 10.4623 2.62829 12.908 2.62829C14.9688 2.62829 16.8257 3.00209 18.4788 3.74969C20.1546 4.49729 21.5586 5.57197 22.6909 6.97372L19.1582 10.3379C17.5504 8.4222 15.5575 7.46433 13.1797 7.46433C11.7078 7.46433 10.3943 7.80309 9.23941 8.4806C8.08449 9.13475 7.17866 10.0576 6.52194 11.2491C5.88786 12.4406 5.57082 13.7956 5.57082 15.3141C5.57082 16.8327 5.88786 18.1877 6.52194 19.3792C7.17866 20.5707 8.08449 21.5052 9.23941 22.1827C10.3943 22.8369 11.7078 23.164 13.1797 23.164C15.5575 23.164 17.5504 22.1944 19.1582 20.2553L22.6909 23.6195C21.5586 25.0446 20.1546 26.131 18.4788 26.8786C16.803 27.6262 14.9348 28 12.874 28Z" fill="black"/>
<path d="M33.8336 27.8598C31.9087 27.8598 30.1763 27.451 28.6364 26.6333C27.1192 25.7922 25.9303 24.6358 25.0698 23.164C24.2092 21.6921 23.779 20.0217 23.779 18.1527C23.779 16.2837 24.2092 14.6133 25.0698 13.1414C25.9303 11.6696 27.1192 10.5248 28.6364 9.70713C30.1763 8.86608 31.9087 8.44556 33.8336 8.44556C35.7585 8.44556 37.4796 8.86608 38.9968 9.70713C40.5141 10.5248 41.703 11.6696 42.5635 13.1414C43.424 14.6133 43.8543 16.2837 43.8543 18.1527C43.8543 20.0217 43.424 21.6921 42.5635 23.164C41.703 24.6358 40.5141 25.7922 38.9968 26.6333C37.4796 27.451 35.7585 27.8598 33.8336 27.8598ZM33.8336 23.3742C35.1923 23.3742 36.302 22.907 37.1625 21.9725C38.0457 21.0146 38.4873 19.7413 38.4873 18.1527C38.4873 16.564 38.0457 15.3025 37.1625 14.368C36.302 13.4101 35.1923 12.9312 33.8336 12.9312C32.4749 12.9312 31.3539 13.4101 30.4707 14.368C29.5876 15.3025 29.146 16.564 29.146 18.1527C29.146 19.7413 29.5876 21.0146 30.4707 21.9725C31.3539 22.907 32.4749 23.3742 33.8336 23.3742Z" fill="black"/>
<path d="M56.2281 27.8598C54.2806 27.8598 52.5255 27.451 50.963 26.6333C49.4231 25.7922 48.2115 24.6358 47.3284 23.164C46.4678 21.6921 46.0376 20.0217 46.0376 18.1527C46.0376 16.2837 46.4678 14.6133 47.3284 13.1414C48.2115 11.6696 49.4231 10.5248 50.963 9.70713C52.5255 8.86608 54.2806 8.44556 56.2281 8.44556C58.153 8.44556 59.8287 8.86608 61.2554 9.70713C62.7047 10.5248 63.7578 11.7046 64.4145 13.2466L60.3043 15.5244C59.3532 13.7956 57.9831 12.9312 56.1941 12.9312C54.8127 12.9312 53.6691 13.3984 52.7633 14.3329C51.8575 15.2674 51.4046 16.5407 51.4046 18.1527C51.4046 19.7647 51.8575 21.038 52.7633 21.9725C53.6691 22.907 54.8127 23.3742 56.1941 23.3742C58.0058 23.3742 59.3758 22.5098 60.3043 20.781L64.4145 23.0939C63.7578 24.5891 62.7047 25.7572 61.2554 26.5982C59.8287 27.4393 58.153 27.8598 56.2281 27.8598Z" fill="black"/>
<path d="M75.1795 20.1852L72.6319 22.7785V27.5795H67.3328V1.57697H72.6319V16.2954L80.3767 8.72591H86.6948L79.0859 16.7159L87.3742 27.5795H80.9542L75.1795 20.1852Z" fill="black"/>
<path d="M101.544 26.6683C101.024 27.0655 100.378 27.3692 99.6081 27.5795C98.8608 27.7664 98.0682 27.8598 97.2304 27.8598C95.0564 27.8598 93.3693 27.2874 92.1691 26.1427C90.9915 24.9979 90.4027 23.3158 90.4027 21.0964V13.3517H87.5833V9.14643H90.4027V4.5557H95.7018V9.14643H100.254V13.3517H95.7018V21.0263C95.7018 21.8206 95.8943 22.4397 96.2792 22.8836C96.6869 23.3041 97.253 23.5144 97.9777 23.5144C98.8156 23.5144 99.5289 23.2808 100.118 22.8135L101.544 26.6683Z" fill="black"/>
<path d="M111.89 8.44556C114.721 8.44556 116.895 9.14643 118.412 10.5482C119.929 11.9266 120.688 14.0175 120.688 16.821V27.5795H115.729V25.2315C114.732 26.9837 112.875 27.8598 110.158 27.8598C108.754 27.8598 107.531 27.6145 106.489 27.1239C105.47 26.6333 104.689 25.9558 104.145 25.0914C103.602 24.227 103.33 23.2457 103.33 22.1477C103.33 20.3955 103.964 19.0171 105.232 18.0125C106.523 17.0079 108.505 16.5056 111.177 16.5056H115.389C115.389 15.3141 115.038 14.403 114.336 13.7722C113.634 13.1181 112.581 12.791 111.177 12.791C110.203 12.791 109.241 12.9545 108.289 13.2816C107.361 13.5853 106.568 14.0058 105.912 14.5432L104.009 10.7234C105.006 9.99917 106.195 9.43847 107.576 9.0413C108.98 8.64414 110.418 8.44556 111.89 8.44556ZM111.483 24.1802C112.388 24.1802 113.192 23.97 113.894 23.5494C114.596 23.1055 115.094 22.4631 115.389 21.622V19.6946H111.754C109.58 19.6946 108.493 20.4305 108.493 21.9024C108.493 22.6033 108.754 23.164 109.275 23.5845C109.818 23.9816 110.554 24.1802 111.483 24.1802Z" fill="black"/>
<path d="M125.484 8.72591H130.783V27.5795H125.484V8.72591ZM128.133 6.09762C127.16 6.09762 126.367 5.80559 125.756 5.22153C125.144 4.63746 124.838 3.91322 124.838 3.04881C124.838 2.1844 125.144 1.46016 125.756 0.876096C126.367 0.292032 127.16 0 128.133 0C129.107 0 129.9 0.280351 130.511 0.841053C131.123 1.40175 131.428 2.10263 131.428 2.94368C131.428 3.85482 131.123 4.6141 130.511 5.22153C129.9 5.80559 129.107 6.09762 128.133 6.09762Z" fill="black"/>
<path d="M135.701 1.57697H141V27.5795H135.701V1.57697Z" fill="black"/>
</svg>
