<svg width="45" height="33" viewBox="0 0 45 33" fill="none" xmlns="http://www.w3.org/2000/svg">
<path d="M22.5 32C34.9264 32 45 22.0863 45 9.85718H0C0 22.0863 10.0736 32 22.5 32Z" fill="black"/>
<path d="M13.5 9.85718C13.5 4.96551 17.5294 1.00004 22.5 1.00004C27.4706 1.00004 31.5 4.96551 31.5 9.85718" stroke="black"/>
<path d="M21.9988 26.18C21.3868 26.18 20.8468 26.05 20.3788 25.79C19.9108 25.526 19.5448 25.16 19.2808 24.692C19.0208 24.224 18.8908 23.684 18.8908 23.072V20.288C18.8908 19.676 19.0208 19.136 19.2808 18.668C19.5448 18.2 19.9108 17.836 20.3788 17.576C20.8468 17.312 21.3868 17.18 21.9988 17.18C22.6108 17.18 23.1488 17.312 23.6128 17.576C24.0808 17.836 24.4468 18.2 24.7108 18.668C24.9748 19.136 25.1068 19.676 25.1068 20.288V23.072C25.1068 23.684 24.9748 24.224 24.7108 24.692C24.4468 25.16 24.0808 25.526 23.6128 25.79C23.1488 26.05 22.6108 26.18 21.9988 26.18ZM21.9988 24.806C22.3028 24.806 22.5788 24.734 22.8268 24.59C23.0748 24.442 23.2708 24.246 23.4148 24.002C23.5588 23.754 23.6308 23.478 23.6308 23.174V20.18C23.6308 19.872 23.5588 19.596 23.4148 19.352C23.2708 19.104 23.0748 18.908 22.8268 18.764C22.5788 18.616 22.3028 18.542 21.9988 18.542C21.6948 18.542 21.4188 18.616 21.1708 18.764C20.9228 18.908 20.7268 19.104 20.5828 19.352C20.4388 19.596 20.3668 19.872 20.3668 20.18V23.174C20.3668 23.478 20.4388 23.754 20.5828 24.002C20.7268 24.246 20.9228 24.442 21.1708 24.59C21.4188 24.734 21.6948 24.806 21.9988 24.806Z" fill="#EAE5DD"/>
</svg>
