<svg width="16" height="16" viewBox="0 0 16 16" fill="none" xmlns="http://www.w3.org/2000/svg">
<path fill-rule="evenodd" clip-rule="evenodd" d="M14.271 5.59734C13.8608 5.78346 13.4507 5.8455 12.9721 5.90754C13.4507 5.65938 13.7925 5.28715 13.9292 4.79083C13.519 5.03899 13.0405 5.16307 12.4936 5.28715C12.0835 4.91491 11.4682 4.66675 10.853 4.66675C9.6909 4.66675 8.66551 5.59734 8.66551 6.71406C8.66551 6.90018 8.66551 7.02426 8.73387 7.14834C6.88817 7.0863 5.17919 6.27978 4.08545 5.03899C3.88037 5.34919 3.81201 5.65938 3.81201 6.09366C3.81201 6.7761 4.22217 7.3965 4.8374 7.76874C4.4956 7.76874 4.15381 7.64466 3.81201 7.52058C3.81201 8.51321 4.56396 9.31973 5.58935 9.50585C5.38427 9.56789 5.17919 9.56789 4.97412 9.56789C4.8374 9.56789 4.70068 9.56789 4.56396 9.50585C4.8374 10.3124 5.65771 10.9328 6.6831 10.9328C5.93115 11.4911 4.97412 11.8013 3.88037 11.8013C3.67529 11.8013 3.53857 11.8013 3.3335 11.8013C4.35888 12.3597 5.52099 12.7319 6.75146 12.7319C10.853 12.7319 13.1089 9.62993 13.1089 6.96222C13.1089 6.90018 13.1089 6.7761 13.1089 6.71406C13.5874 6.40386 13.9975 6.03162 14.271 5.59734Z" fill="white"/>
</svg>
