<svg width="16" height="16" viewBox="0 0 16 16" fill="none" xmlns="http://www.w3.org/2000/svg">
<path d="M8.16299 2C4.87408 2 3.125 4.1076 3.125 6.40571C3.125 7.47152 3.72053 8.80058 4.67383 9.2221C4.81858 9.28735 4.89734 9.2596 4.92959 9.12535C4.95809 9.02334 5.08334 8.53207 5.1441 8.3003C5.16285 8.22605 5.1531 8.16155 5.0931 8.09179C4.77658 7.72578 4.52532 7.059 4.52532 6.43346C4.52532 4.83064 5.79963 3.27431 7.96798 3.27431C9.84308 3.27431 11.1549 4.49237 11.1549 6.23471C11.1549 8.20355 10.1131 9.56562 8.75927 9.56562C8.00999 9.56562 7.45196 8.97759 7.62897 8.25005C7.84273 7.38376 8.262 6.45222 8.262 5.82744C8.262 5.26716 7.94548 4.80364 7.29895 4.80364C6.53617 4.80364 5.91739 5.55892 5.91739 6.57297C5.91739 7.21725 6.1454 7.65227 6.1454 7.65227C6.1454 7.65227 5.39086 10.7004 5.2506 11.2697C5.01359 12.2335 5.28285 13.7943 5.30611 13.9286C5.32036 14.0028 5.40361 14.0261 5.45011 13.9653C5.52437 13.8678 6.43641 12.5665 6.69217 11.626C6.78518 11.2832 7.16695 9.89338 7.16695 9.89338C7.41821 10.3472 8.14349 10.7274 8.91603 10.7274C11.2141 10.7274 12.8747 8.70757 12.8747 6.20095C12.8665 3.79784 10.8099 2 8.16299 2Z" fill="white"/>
</svg>
