<svg width="16" height="16" viewBox="0 0 16 16" fill="none" xmlns="http://www.w3.org/2000/svg">
<path d="M14.3625 3.96364C13.9556 3.26182 13.5141 3.13273 12.615 3.08364C11.7169 3.02455 9.45844 3 7.50187 3C5.54156 3 3.28219 3.02455 2.385 3.08273C1.48781 3.13273 1.04531 3.26091 0.634687 3.96364C0.215625 4.66455 0 5.87182 0 7.99727C0 7.99909 0 8 0 8C0 8.00182 0 8.00273 0 8.00273V8.00455C0 10.1209 0.215625 11.3373 0.634687 12.0309C1.04531 12.7327 1.48687 12.86 2.38406 12.9191C3.28219 12.97 5.54156 13 7.50187 13C9.45844 13 11.7169 12.97 12.6159 12.92C13.515 12.8609 13.9566 12.7336 14.3634 12.0318C14.7863 11.3382 15 10.1218 15 8.00545C15 8.00545 15 8.00273 15 8.00091C15 8.00091 15 7.99909 15 7.99818C15 5.87182 14.7863 4.66455 14.3625 3.96364ZM5.625 10.7273V5.27273L10.3125 8L5.625 10.7273Z" fill="white"/>
</svg>
