<svg width="16" height="16" viewBox="0 0 16 16" fill="none" xmlns="http://www.w3.org/2000/svg">
<path d="M8 3.081C6.398 3.081 6.208 3.087 5.5755 3.116C4.8925 3.147 4.259 3.284 3.7715 3.7715C3.284 4.259 3.147 4.8925 3.116 5.5755C3.087 6.208 3.081 6.398 3.081 8C3.081 9.602 3.087 9.792 3.116 10.4245C3.147 11.1075 3.284 11.741 3.7715 12.2285C4.259 12.716 4.8925 12.853 5.5755 12.884C6.208 12.913 6.398 12.919 8 12.919C9.602 12.919 9.792 12.913 10.4245 12.884C11.1075 12.853 11.741 12.716 12.2285 12.2285C12.716 11.741 12.853 11.1075 12.884 10.4245C12.913 9.792 12.919 9.602 12.919 8C12.919 6.398 12.913 6.208 12.884 5.5755C12.853 4.8925 12.716 4.259 12.2285 3.7715C11.741 3.284 11.1075 3.147 10.4245 3.116C9.792 3.087 9.602 3.081 8 3.081ZM8 2C9.6295 2 9.834 2.007 10.474 2.036C11.449 2.0805 12.3055 2.3195 12.993 3.007C13.6805 3.6945 13.9195 4.551 13.964 5.526C13.993 6.166 14 6.3705 14 8C14 9.6295 13.993 9.834 13.964 10.474C13.9195 11.449 13.6805 12.3055 12.993 12.993C12.3055 13.6805 11.449 13.9195 10.474 13.964C9.834 13.993 9.6295 14 8 14C6.3705 14 6.166 13.993 5.526 13.964C4.551 13.9195 3.6945 13.6805 3.007 12.993C2.3195 12.3055 2.0805 11.449 2.036 10.474C2.007 9.834 2 9.6295 2 8C2 6.3705 2.007 6.166 2.036 5.526C2.0805 4.551 2.3195 3.6945 3.007 3.007C3.6945 2.3195 4.551 2.0805 5.526 2.036C6.166 2.007 6.3705 2 8 2ZM8 4.919C9.7015 4.919 11.081 6.2985 11.081 8C11.081 9.7015 9.7015 11.081 8 11.081C6.2985 11.081 4.919 9.7015 4.919 8C4.919 6.2985 6.2985 4.919 8 4.919ZM8 10C9.1045 10 10 9.1045 10 8C10 6.8955 9.1045 6 8 6C6.8955 6 6 6.8955 6 8C6 9.1045 6.8955 10 8 10ZM11.203 5.517C10.8054 5.517 10.483 5.19465 10.483 4.797C10.483 4.39935 10.8054 4.077 11.203 4.077C11.6006 4.077 11.923 4.39935 11.923 4.797C11.923 5.19465 11.6006 5.517 11.203 5.517Z" fill="white"/>
</svg>
