<svg width="80" height="80" viewBox="0 0 80 80" fill="none" xmlns="http://www.w3.org/2000/svg">
<g clip-path="url(#clip0_0_913)">
<path d="M70.4874 29.3959C70.4874 21.0244 64.1856 14.0969 56.0767 13.1075C55.3976 9.7825 53.6998 6.74375 51.1789 4.39672C48.1332 1.56156 44.1631 0 40 0C35.8368 0 31.8667 1.56156 28.821 4.39687C26.3001 6.74391 24.6023 9.78266 23.9232 13.1077C15.8143 14.0969 9.51245 21.0244 9.51245 29.3959C9.51245 33.2581 10.8795 36.977 13.3245 39.9089C10.8795 42.8406 9.51245 46.5597 9.51245 50.4219C9.51245 59.47 16.8737 66.8313 25.9218 66.8313C27.1365 66.8313 28.4382 66.6725 29.7382 66.3858L31.2649 50.0134C28.8929 47.723 27.4134 44.5141 27.4134 40.9641H32.0945C32.0945 45.3233 35.6409 48.8697 40.0001 48.8697C44.3593 48.8697 47.9057 45.3233 47.9057 40.9641H52.5868C52.5868 44.5125 51.1085 47.7203 48.7382 50.0105L50.2709 66.4661C51.6142 66.7122 52.9239 66.8311 54.0782 66.8311C63.1264 66.8311 70.4876 59.4698 70.4876 50.4217C70.4876 46.5594 69.1206 42.8405 66.6756 39.9087C69.1204 36.977 70.4874 33.2581 70.4874 29.3959Z" fill="black"/>
<path d="M35.5616 52.7403L33.0195 80H46.9805L44.4414 52.7392C43.0594 53.2623 41.563 53.5509 40 53.5509C38.4381 53.5508 36.9428 53.2626 35.5616 52.7403Z" fill="black"/>
</g>
<defs>
<clipPath id="clip0_0_913">
<rect width="80" height="80" fill="white"/>
</clipPath>
</defs>
</svg>
