<svg width="80" height="80" viewBox="0 0 80 80" fill="none" xmlns="http://www.w3.org/2000/svg">
<g clip-path="url(#clip0_0_908)">
<path d="M79.1071 38.8028L68.0161 34.9213C63.59 33.3715 58.7246 33.682 54.5318 35.7814C50.3384 37.8808 47.174 41.5887 45.7617 46.0602L42.8594 55.2503L40.002 57.3929V38.2011C39.9993 35.6429 41.2795 33.253 43.409 31.8373L43.3946 31.8159C43.4712 31.7751 43.5438 31.7255 43.6108 31.6703C48.9669 26.3139 51.7651 18.9146 51.2945 11.3544L50.6687 1.31391C50.6292 0.682053 50.1513 0.16532 49.5244 0.0759623C48.8996 -0.00670166 48.3005 0.355748 48.0833 0.948117L43.7714 13.0167C42.1593 17.5254 41.335 22.2771 41.3357 27.0656V30.0696C38.8153 32.0137 37.3377 35.018 37.3357 38.2021V40.8437L35.9803 39.4869C35.752 29.5739 29.3243 20.8695 19.914 17.7379L11.0924 14.8055C10.6362 14.6526 10.1339 14.758 9.77678 15.079C9.42002 15.4019 9.26339 15.8909 9.36848 16.3604L10.8353 22.9752C13.1841 33.7687 22.7631 41.4494 33.8099 41.3942H34.1178L37.3357 44.6128V73.9012L34.6693 72.5676V69.8253C34.6693 63.1188 31.4448 56.8199 26.0037 52.8992C20.5616 48.9779 13.5673 47.9106 7.20449 50.0321L0.916332 52.1281C0.369478 52.3082 0 52.8189 0 53.3949C0 53.9705 0.369478 54.4812 0.916332 54.6616L2.34505 55.1378C9.18775 57.4129 15.5743 60.8855 21.2035 65.3932L32.502 74.4317C32.5793 74.4852 32.6613 74.5301 32.748 74.5656L32.74 74.5836L37.3357 76.8838V80.0585H40.002V60.7262L44.8022 57.1258L44.7878 57.1074C44.8424 57.0759 44.8946 57.0401 44.9445 57.0023C53.3886 48.5873 64.3839 43.2098 76.2095 41.7111L78.833 41.3838C79.4471 41.3059 79.9271 40.8162 79.9927 40.2018C80.0579 39.5863 79.6914 39.007 79.1071 38.8028Z" fill="black"/>
</g>
<defs>
<clipPath id="clip0_0_908">
<rect width="80" height="80" fill="white"/>
</clipPath>
</defs>
</svg>
