<svg width="41" height="41" viewBox="0 0 41 41" fill="none" xmlns="http://www.w3.org/2000/svg">
<g clip-path="url(#clip0_0_1710)">
<g clip-path="url(#clip1_0_1710)">
<path d="M20.9766 3.0206C20.6361 1.12513 17.9659 0.0185676 15.0125 0.549036C12.7783 0.950286 10.1208 3.45482 8.95881 4.65099C8.81521 4.7988 8.7517 5.00693 8.78818 5.20982C8.82467 5.41271 8.95662 5.5856 9.14271 5.67411C10.6483 6.39122 14.0113 7.81443 16.2454 7.41318C19.1987 6.88279 21.3171 4.91615 20.9766 3.0206Z" fill="black"/>
<path d="M30.5249 20.9031C28.7685 18.7967 27.8031 16.1406 27.8031 13.3981C27.8031 10.5924 25.947 8.22103 23.396 7.4429C24.0125 6.37181 25.2799 4.52134 27.1451 3.50009C27.4718 3.32118 27.6186 2.92978 27.4891 2.58056L26.7133 0.490011C26.6349 0.278683 26.4658 0.113761 26.2525 0.0407139C26.0393 -0.0324112 25.8046 -0.00577052 25.6129 0.112823C24.2854 0.934308 21.7367 3.03079 21.3297 7.17853C18.0063 7.30868 15.3516 10.0427 15.3516 13.3981C15.3516 16.1467 14.3902 18.792 12.6299 20.903C10.9459 22.9224 9.93286 25.5206 9.93286 28.3556C9.93286 34.7868 15.1464 40.0002 21.5774 40.0002C28.0084 40.0002 33.2219 34.7868 33.2219 28.3556C33.2218 25.5206 32.2087 22.9224 30.5249 20.9031Z" fill="black"/>
</g>
</g>
<defs>
<clipPath id="clip0_0_1710">
<rect width="40" height="40" fill="white" transform="translate(0.5 0.5)"/>
</clipPath>
<clipPath id="clip1_0_1710">
<rect width="40" height="40" fill="white" transform="translate(1)"/>
</clipPath>
</defs>
</svg>
