<svg width="41" height="41" viewBox="0 0 41 41" fill="none" xmlns="http://www.w3.org/2000/svg">
<g clip-path="url(#clip0_0_1705)">
<path d="M40.4818 19.8881L34.8062 17.9018C32.5412 17.1086 30.0514 17.2676 27.9058 18.3419C25.7599 19.4162 24.1406 21.3137 23.4178 23.6019L21.9326 28.3048L20.4704 29.4012V19.5801C20.469 18.271 21.1241 17.048 22.2139 16.3236L22.2065 16.3126C22.2457 16.2917 22.2829 16.2664 22.3171 16.2381C25.058 13.497 26.49 9.71059 26.2492 5.84176L25.9289 0.703694C25.9087 0.38035 25.6641 0.11592 25.3433 0.0701923C25.0236 0.0278903 24.717 0.213368 24.6059 0.516504L22.3993 6.69242C21.5744 8.99967 21.1525 11.4313 21.1529 13.8817V15.419C19.8631 16.4138 19.107 17.9513 19.1059 19.5806V20.9324L18.4123 20.2381C18.2955 15.1653 15.0062 10.7109 10.1907 9.10843L5.67635 7.60782C5.44291 7.52955 5.18585 7.5835 5.00311 7.74774C4.82054 7.91301 4.74039 8.16323 4.79417 8.40351L5.54482 11.7885C6.74674 17.3119 11.6486 21.2424 17.3017 21.2142H17.4593L19.1059 22.8612V37.8491L17.7415 37.1666V35.7633C17.7415 32.3313 16.0914 29.108 13.307 27.1017C10.5221 25.095 6.94284 24.5488 3.68678 25.6345L0.468918 26.7071C0.189074 26.7992 0 27.0606 0 27.3553C0 27.6499 0.189074 27.9112 0.468918 28.0035L1.20004 28.2472C4.70169 29.4115 7.9699 31.1885 10.8505 33.4953L16.6324 38.1206C16.672 38.148 16.7139 38.1709 16.7583 38.1891L16.7542 38.1983L19.1059 39.3754V41H20.4704V31.107L22.9268 29.2645L22.9195 29.2551C22.9474 29.239 22.9741 29.2207 22.9996 29.2013C27.3208 24.8951 32.9474 22.1433 38.999 21.3763L40.3415 21.2088C40.6558 21.1689 40.9014 20.9184 40.935 20.6039C40.9684 20.289 40.7808 19.9925 40.4818 19.8881Z" fill="black"/>
</g>
<defs>
<clipPath id="clip0_0_1705">
<rect width="40" height="40" fill="white" transform="translate(0.5 0.5)"/>
</clipPath>
</defs>
</svg>
