<svg width="80" height="80" viewBox="0 0 80 80" fill="none" xmlns="http://www.w3.org/2000/svg">
<g clip-path="url(#clip0_0_950)">
<path d="M39.9532 6.04126C39.2723 2.25032 33.9318 0.0371962 28.025 1.09813C23.5567 1.90063 18.2415 6.9097 15.9176 9.30204C15.6304 9.59766 15.5034 10.0139 15.5764 10.4197C15.6493 10.8255 15.9132 11.1713 16.2854 11.3483C19.2967 12.7825 26.0226 15.6289 30.4907 14.8264C36.3975 13.7656 40.6342 9.83235 39.9532 6.04126Z" fill="black"/>
<path d="M59.0498 41.8061C55.537 37.5933 53.6062 32.2813 53.6062 26.7961C53.6062 21.1849 49.894 16.4421 44.792 14.8858C46.0249 12.7436 48.5598 9.04268 52.2903 7.00018C52.9435 6.64237 53.2373 5.85955 52.9782 5.16112L51.4267 0.980022C51.2698 0.557365 50.9315 0.227521 50.5051 0.0814277C50.0785 -0.0648223 49.6092 -0.011541 49.2259 0.225647C46.5709 1.86862 41.4734 6.06159 40.6595 14.3571C34.0126 14.6174 28.7032 20.0853 28.7032 26.7961C28.7032 32.2935 26.7804 37.5839 23.2598 41.806C19.8918 45.8447 17.8657 51.0413 17.8657 56.7113C17.8657 69.5736 28.2928 80.0004 41.1548 80.0004C54.0168 80.0004 64.4438 69.5736 64.4438 56.7113C64.4437 51.0411 62.4174 45.8449 59.0498 41.8061Z" fill="black"/>
</g>
<defs>
<clipPath id="clip0_0_950">
<rect width="80" height="80" fill="white"/>
</clipPath>
</defs>
</svg>
