<svg width="80" height="80" viewBox="0 0 80 80" fill="none" xmlns="http://www.w3.org/2000/svg">
<path d="M15.6331 66.3845C14.205 66.3845 12.8127 66.2363 11.4673 65.9553C12.0229 69.6186 12.3054 73.3271 12.3101 77.0325C16.7257 75.5638 21.2256 74.4899 25.7691 73.8188C23.47 71.5618 21.7328 68.7835 20.7167 65.743C19.0716 66.1676 17.3672 66.3845 15.6331 66.3845Z" fill="black"/>
<path d="M59.2534 65.7399C58.2185 68.8507 56.4626 71.6024 54.1963 73.8188C58.7414 74.4884 63.2428 75.5638 67.66 77.0325C67.6647 73.3271 67.9472 69.6201 68.5028 65.9553C65.5054 66.5892 62.23 66.521 59.2534 65.7399Z" fill="black"/>
<path d="M76.6767 36.4885C72.7543 42.8458 66.0709 47.3253 58.3105 48.2415C52.2069 54.8971 42.4017 57.7606 33.6744 55.4135C31.7931 59.0713 28.7526 62.129 25.0898 64.0527C30.0633 79.3242 52.1296 78.1209 55.3246 62.298C55.3246 62.2983 55.8631 59.5076 55.8631 59.5076L58.4993 60.5705C73.067 66.4648 86.411 49.1003 76.6767 36.4885Z" fill="black"/>
<path d="M15.6329 61.7021C21.1578 61.7597 26.5448 58.6071 29.2293 53.7887C26.3898 52.4359 23.8155 50.538 21.6795 48.2446C14.1742 47.4084 7.23535 42.9659 3.28677 36.4979C-4.69577 46.8074 2.80806 61.7266 15.6329 61.7021Z" fill="black"/>
<path d="M9.6721 37.1987C11.9025 39.6086 14.6433 41.4192 17.662 42.5133C9.85034 27.6812 19.6075 8.88856 35.9502 6.46601C15.547 -6.40551 -6.21524 19.0539 9.6721 37.1987Z" fill="black"/>
<path d="M60.5723 15.8466C67.7903 26.0219 62.6693 39.9528 50.8888 42.3759C49.4811 42.6787 48.0626 42.862 46.6638 42.9612C49.61 43.5397 53.4733 43.877 56.9761 43.6699C67.5409 42.8334 75.7318 33.9209 75.7092 23.3776C75.8515 7.32712 57.3738 -2.57617 44.1118 6.40514C51.0934 7.31822 56.8466 10.5913 60.5723 15.8466Z" fill="black"/>
<path d="M19.6286 31.1801C19.7191 47.3831 37.5284 56.9642 51.0605 48.2556C42.5493 47.6817 32.2472 44.3688 29.7068 35.6113C29.7053 35.6082 29.7053 35.6051 29.7037 35.6035C28.0019 30.7494 30.1887 25.1529 34.6281 22.6908C44.5075 17.2282 55.0887 28.3668 49.1391 37.9495C58.1727 36.5775 62.1878 26.4068 56.7527 18.5546C52.2217 12.1646 45.1325 10.8238 39.9849 10.8238C28.9263 10.7697 19.5839 19.9288 19.6286 31.1801Z" fill="black"/>
<path d="M33.8149 32.0558C33.7548 35.4069 36.5294 38.3109 39.9849 38.296C43.3875 38.296 46.1548 35.5286 46.1548 32.126C45.8224 23.9813 34.2357 23.9247 33.8149 32.0558Z" fill="black"/>
</svg>
