<svg width="80" height="80" viewBox="0 0 80 80" fill="none" xmlns="http://www.w3.org/2000/svg">
<path d="M23.0212 26.39C23.5182 24.5889 24.3916 22.9137 25.5837 21.475L23.9112 20.3588C22.3084 22.0219 21.1436 24.0569 20.5212 26.2813C20.7637 26.2675 21 26.25 21.25 26.25C21.843 26.2542 22.4349 26.301 23.0212 26.39Z" fill="black"/>
<path d="M36.7249 37.3125L38.8924 33.17L41.1074 34.33L38.1524 39.975C38.5691 40.8567 38.9511 41.7596 39.2986 42.6838L39.6036 42.3788C41.541 40.4434 44.0363 39.1643 46.7386 38.7213C46.9404 37.3007 46.8081 35.8528 46.3525 34.4923C45.8968 33.1318 45.1302 31.8962 44.1136 30.8838C43.9387 30.7088 43.8197 30.4859 43.7715 30.2432C43.7234 30.0005 43.7484 29.749 43.8433 29.5205C43.9382 29.2921 44.0987 29.0969 44.3046 28.9597C44.5105 28.8226 44.7525 28.7496 44.9999 28.75C47.9836 28.75 50.8451 27.5647 52.9548 25.455C55.0646 23.3452 56.2499 20.4837 56.2499 17.5C56.2577 16.7851 56.1974 16.071 56.0699 15.3675L54.4449 6.41251L44.8749 25.5588L42.6374 24.4413L52.0349 5.63501L44.2074 10.11C42.5515 11.0592 41.175 12.4281 40.2169 14.0789C39.2587 15.7297 38.7527 17.6038 38.7499 19.5125C38.6882 22.0926 39.4693 24.6226 40.9749 26.7188C41.1349 26.9184 41.2298 27.1623 41.2468 27.4176C41.2638 27.6729 41.202 27.9272 41.0699 28.1463C40.9391 28.3667 40.7429 28.5409 40.5087 28.6448C40.2744 28.7487 40.0136 28.7772 39.7624 28.7263C38.3087 28.4253 36.8077 28.4369 35.3589 28.7601C33.9101 29.0834 32.5465 29.711 31.3586 30.6013C33.4766 32.554 35.286 34.8168 36.7249 37.3125Z" fill="black"/>
<path d="M57.0749 40.9375L55.4224 39.0625L73.3986 23.2012L66.1686 24.4075C64.0577 24.7518 62.0458 25.5469 60.2699 26.7387L59.2186 27.44C57.1497 28.817 55.4535 30.6844 54.2812 32.8758C53.1089 35.0673 52.497 37.5147 52.4999 40C52.4999 40.1841 52.4593 40.366 52.3808 40.5326C52.3024 40.6992 52.1881 40.8464 52.0461 40.9637C51.9046 41.0823 51.7382 41.1675 51.5592 41.213C51.3803 41.2584 51.1934 41.263 51.0124 41.2262C50.0229 41.0138 49.0057 40.9627 47.9999 41.075C45.4986 41.286 43.1523 42.3737 41.3749 44.1462L40.1711 45.35C40.2249 45.545 40.2774 45.7412 40.3274 45.935C42.6285 44.6565 45.1902 43.9179 47.8187 43.7752C50.4473 43.6325 53.0739 44.0894 55.4999 45.1112C55.3907 44.8412 55.2703 44.5754 55.1386 44.3137C55.0425 44.1235 54.9966 43.9118 55.0053 43.6989C55.0141 43.4859 55.0771 43.2787 55.1884 43.0969C55.2998 42.9152 55.4558 42.7649 55.6415 42.6605C55.8273 42.556 56.0367 42.5007 56.2499 42.5H61.1374C65.1445 42.4967 68.9865 40.9034 71.8199 38.07C74.6533 35.2366 76.2466 31.3946 76.2499 27.3875V24.02L57.0749 40.9375Z" fill="black"/>
<path d="M37.3875 47.9488C37.6237 47.7475 37.8725 47.5737 38.1175 47.38C38.1087 47.3475 38.105 47.3162 38.0962 47.2837C37.9387 46.5925 37.77 45.97 37.5775 45.3387C36.0203 39.973 32.9143 35.186 28.6488 31.5775C26.5716 29.8282 23.9644 28.8319 21.25 28.75C11.5887 28.75 3.75 43.125 3.75 52.5C3.75 62.4875 11.9275 71.25 21.25 71.25C25.3131 71.1938 29.212 69.6378 32.1975 66.8813C31.7144 65.4622 31.4169 63.9866 31.3125 62.4912C31.2912 62.4912 31.2712 62.5 31.25 62.5C30.7058 62.5077 30.1664 62.3969 29.6693 62.1752C29.1722 61.9535 28.7293 61.6262 28.3714 61.2162C28.0135 60.8061 27.7492 60.323 27.5967 59.8005C27.4443 59.278 27.4075 58.7285 27.4888 58.1904C27.57 57.6522 27.7675 57.1381 28.0674 56.6839C28.3674 56.2297 28.7626 55.8463 29.2256 55.5602C29.6887 55.2741 30.2085 55.0922 30.7488 55.0272C31.2892 54.9622 31.8373 55.0156 32.355 55.1838C33.3865 52.3816 35.1191 49.8906 37.3875 47.9488ZM5 50C5 49.2583 5.21993 48.5333 5.63199 47.9166C6.04404 47.2999 6.62971 46.8193 7.31494 46.5355C8.00016 46.2516 8.75416 46.1774 9.48159 46.3221C10.209 46.4667 10.8772 46.8239 11.4017 47.3484C11.9261 47.8728 12.2833 48.541 12.4279 49.2684C12.5726 49.9958 12.4984 50.7498 12.2145 51.4351C11.9307 52.1203 11.4501 52.706 10.8334 53.118C10.2167 53.5301 9.49168 53.75 8.75 53.75C7.75544 53.75 6.80161 53.3549 6.09835 52.6516C5.39509 51.9484 5 50.9946 5 50ZM12.5 63.75C11.7583 63.75 11.0333 63.5301 10.4166 63.118C9.79993 62.706 9.31928 62.1203 9.03545 61.4351C8.75162 60.7498 8.67736 59.9958 8.82206 59.2684C8.96675 58.541 9.3239 57.8728 9.84835 57.3484C10.3728 56.8239 11.041 56.4667 11.7684 56.3221C12.4958 56.1774 13.2498 56.2516 13.9351 56.5355C14.6203 56.8193 15.206 57.2999 15.618 57.9166C16.0301 58.5333 16.25 59.2583 16.25 60C16.25 60.9946 15.8549 61.9484 15.1517 62.6516C14.4484 63.3549 13.4946 63.75 12.5 63.75ZM12.5 45C11.7583 45 11.0333 44.7801 10.4166 44.368C9.79993 43.956 9.31928 43.3703 9.03545 42.6851C8.75162 41.9998 8.67736 41.2458 8.82206 40.5184C8.96675 39.791 9.3239 39.1228 9.84835 38.5983C10.3728 38.0739 11.041 37.7167 11.7684 37.5721C12.4958 37.4274 13.2498 37.5016 13.9351 37.7855C14.6203 38.0693 15.206 38.5499 15.618 39.1666C16.0301 39.7833 16.25 40.5083 16.25 41.25C16.25 42.2446 15.8549 43.1984 15.1517 43.9016C14.4484 44.6049 13.4946 45 12.5 45ZM20.97 67.5C20.2283 67.5 19.5033 67.2801 18.8866 66.868C18.2699 66.456 17.7893 65.8703 17.5055 65.1851C17.2216 64.4998 17.1474 63.7458 17.2921 63.0184C17.4367 62.291 17.7939 61.6228 18.3183 61.0984C18.8428 60.5739 19.511 60.2167 20.2384 60.0721C20.9658 59.9274 21.7198 60.0016 22.4051 60.2855C23.0903 60.5693 23.676 61.0499 24.088 61.6666C24.5001 62.2833 24.72 63.0083 24.72 63.75C24.72 64.7446 24.3249 65.6984 23.6217 66.4016C22.9184 67.1049 21.9646 67.5 20.97 67.5ZM22.5 55C21.7583 55 21.0333 54.7801 20.4166 54.368C19.7999 53.956 19.3193 53.3703 19.0355 52.6851C18.7516 51.9998 18.6774 51.2458 18.8221 50.5184C18.9667 49.791 19.3239 49.1228 19.8483 48.5984C20.3728 48.0739 21.041 47.7167 21.7684 47.5721C22.4958 47.4274 23.2498 47.5016 23.9351 47.7855C24.6203 48.0693 25.206 48.5499 25.618 49.1666C26.0301 49.7833 26.25 50.5083 26.25 51.25C26.25 52.2446 25.8549 53.1984 25.1517 53.9016C24.4484 54.6049 23.4946 55 22.5 55ZM22.5 41.25C21.7583 41.25 21.0333 41.0301 20.4166 40.618C19.7999 40.206 19.3193 39.6203 19.0355 38.9351C18.7516 38.2498 18.6774 37.4958 18.8221 36.7684C18.9667 36.041 19.3239 35.3728 19.8483 34.8483C20.3728 34.3239 21.041 33.9667 21.7684 33.8221C22.4958 33.6774 23.2498 33.7516 23.9351 34.0355C24.6203 34.3193 25.206 34.7999 25.618 35.4166C26.0301 36.0333 26.25 36.7583 26.25 37.5C26.25 38.4946 25.8549 39.4484 25.1517 40.1516C24.4484 40.8549 23.4946 41.25 22.5 41.25ZM27.5 47.5C27.5 46.7583 27.7199 46.0333 28.132 45.4166C28.544 44.7999 29.1297 44.3193 29.8149 44.0355C30.5002 43.7516 31.2542 43.6774 31.9816 43.8221C32.709 43.9667 33.3772 44.3239 33.9017 44.8484C34.4261 45.3728 34.7833 46.041 34.9279 46.7684C35.0726 47.4958 34.9984 48.2498 34.7145 48.9351C34.4307 49.6203 33.9501 50.206 33.3334 50.618C32.7167 51.0301 31.9917 51.25 31.25 51.25C30.2554 51.25 29.3016 50.8549 28.5983 50.1516C27.8951 49.4484 27.5 48.4946 27.5 47.5Z" fill="black"/>
<path d="M57.4 47.5C54.3493 45.5817 50.7475 44.7319 47.161 45.0843C43.5746 45.4367 40.2071 46.9712 37.588 49.4466C34.969 51.9219 33.2471 55.1977 32.6932 58.7585C32.1392 62.3194 32.7846 65.9634 34.5279 69.1174C36.2712 72.2714 39.0135 74.7564 42.3234 76.1816C45.6333 77.6068 49.323 77.8914 52.8123 76.9905C56.3016 76.0896 59.3924 74.0544 61.5987 71.205C63.8049 68.3556 65.0014 64.8537 65 61.25C65.0133 58.4997 64.3218 55.7919 62.9913 53.3849C61.6609 50.9778 59.7359 48.9518 57.4 47.5ZM59.7838 59L55.9088 59.355L52.275 59.6875C52.2513 59.635 52.2188 59.5862 52.1925 59.535C52.1663 59.4837 52.1488 59.4537 52.125 59.41C52.0913 59.3487 52.0625 59.285 52.025 59.2275L53.8338 56.9025L56.6588 53.2775C58.2388 54.8374 59.3255 56.8274 59.7838 59ZM49 50C49.2393 50.001 49.4784 50.0143 49.7163 50.04C51.483 50.199 53.1866 50.7762 54.6863 51.7237L50.0438 57.6887C50.0188 57.68 49.9913 57.6812 49.965 57.6725C49.7365 57.6045 49.5021 57.5577 49.265 57.5325C49.22 57.5262 49.1763 57.5087 49.1313 57.505L48.5363 55.3237L47.125 50.1325C47.7452 50.0361 48.3724 49.9918 49 50ZM44.7113 50.795L46.7075 58.125C46.2228 58.4463 45.8175 58.8738 45.5225 59.375L38.085 58.0237C38.5752 56.3985 39.4259 54.9049 40.5736 53.6541C41.7214 52.4034 43.1366 51.4277 44.7138 50.8L44.7113 50.795ZM37.6125 61.25C37.6125 61 37.6225 60.7412 37.64 60.4787L45.0463 61.8237C45.1686 62.625 45.5497 63.3642 46.1313 63.9287L42.75 70.6887C41.1698 69.6736 39.8707 68.2768 38.9728 66.6271C38.0749 64.9774 37.6071 63.1282 37.6125 61.25ZM49.675 72.4587C49.3907 72.4898 49.1047 72.5019 48.8188 72.495C48.6088 72.495 48.3963 72.4862 48.1775 72.4775C47.0842 72.4164 46.0061 72.1927 44.9788 71.8137L48.4013 64.9775L48.5738 64.99C48.6175 64.99 48.6688 64.9962 48.73 64.9975L48.75 65H48.8625C49.0653 64.9998 49.2676 64.9826 49.4675 64.9487C49.5363 64.9375 49.6025 64.915 49.67 64.8987C49.7966 64.8748 49.9218 64.8439 50.045 64.8062L54.7038 70.7912C53.1838 71.7387 51.4599 72.3103 49.675 72.4587ZM56.6688 69.25L52.7938 64.2762L52.0188 63.2762C52.075 63.1887 52.1175 63.0925 52.1663 63C52.195 62.945 52.2275 62.8912 52.2538 62.8337C52.3567 62.6225 52.4392 62.4019 52.5 62.175L60 61.49C59.9453 64.4124 58.7497 67.1974 56.6688 69.25Z" fill="black"/>
</svg>
