<svg width="41" height="41" viewBox="0 0 41 41" fill="none" xmlns="http://www.w3.org/2000/svg">
<g clip-path="url(#clip0_0_1720)">
<path d="M26.2273 21.7686C26.2273 22.3334 26.1374 22.8772 25.971 23.3866C25.1349 23.5463 24.3292 23.8492 23.5898 24.2772C22.5398 24.8897 21.6491 25.7491 20.9999 26.7733C19.9023 25.0254 18.0585 23.7658 16.0288 23.3866C14.9031 20.0786 17.5037 16.4955 21 16.5444C23.889 16.5444 26.2273 18.8858 26.2273 21.7686V21.7686Z" fill="black"/>
<path d="M19.828 30.8184C19.828 33.7038 17.4873 36.0429 14.6004 36.0429C9.23763 35.9911 7.42162 28.9747 11.9747 26.3004C11.9826 26.2964 11.9897 26.2918 11.9976 26.287C13.507 25.3732 15.6929 25.3729 17.2023 26.287C18.7721 27.1889 19.8277 28.8804 19.828 30.8184V30.8184Z" fill="black"/>
<path d="M32.6279 30.8183C32.6279 33.7037 30.2872 36.0429 27.3995 36.0429C22.0229 35.9892 20.2198 28.9464 24.7975 26.287C26.3068 25.3729 28.4928 25.3732 30.0022 26.287C30.0101 26.2918 30.0172 26.2964 30.0251 26.3004C31.5819 27.205 32.6279 28.8897 32.6279 30.8183Z" fill="black"/>
<path d="M39.0273 21.7686C39.0273 24.6093 36.7578 26.921 33.9328 26.9913C33.932 26.9897 33.9312 26.9889 33.9305 26.9874C33.2711 25.8655 32.3281 24.928 31.2031 24.2741C31.2015 24.2733 31.2008 24.2725 31.1992 24.2718C31.1898 24.2663 31.1797 24.2608 31.1703 24.2546C30.443 23.8366 29.65 23.5436 28.8281 23.3866C27.7039 20.0821 30.2975 16.4966 33.8 16.5444C36.6867 16.5444 39.0273 18.8835 39.0273 21.7686V21.7686Z" fill="black"/>
<path d="M13.428 21.7687C13.428 22.3335 13.3382 22.8772 13.1718 23.3866C12.3499 23.5436 11.5569 23.8366 10.8296 24.2546C10.8202 24.2608 10.81 24.2663 10.8007 24.2718C10.7991 24.2726 10.7983 24.2733 10.7968 24.2741C9.67175 24.928 8.72879 25.8655 8.06941 26.9874C8.06863 26.989 8.06785 26.9897 8.06707 26.9913C5.24207 26.921 2.97253 24.6093 2.97253 21.7687C2.97253 18.8835 5.31316 16.5444 8.19988 16.5444C11.0874 16.5444 13.428 18.8835 13.428 21.7687V21.7687Z" fill="black"/>
<path d="M15.7719 37.9054V38.8281C15.7719 39.4749 15.2476 39.9999 14.6 39.9999C13.9531 39.9999 13.4281 39.4749 13.4281 38.8281V37.9054C14.1881 38.0256 15.0115 38.0258 15.7719 37.9054Z" fill="black"/>
<path d="M28.5719 37.9054V38.8281C28.5719 39.4749 28.0469 39.9999 27.4 39.9999C26.7524 39.9999 26.2281 39.4749 26.2281 38.8281V37.9054C26.9885 38.0258 27.8119 38.0256 28.5719 37.9054Z" fill="black"/>
<path d="M15.0296 17.1202C14.8765 17.3155 14.7328 17.5194 14.6007 17.7296C13.3476 15.7522 11.2031 14.3928 8.73744 14.2202C7.139 10.5733 7.89369 6.13346 7.93509 5.90143C8.02103 5.41706 8.39994 5.03737 8.88431 4.95221C9.0015 4.93112 10.9327 4.59909 13.2726 4.80768C11.0326 9.10698 12.2215 13.7245 15.0296 17.1202V17.1202Z" fill="black"/>
<path d="M27.5664 9.59434C27.5664 11.8475 26.5258 13.8756 25.2539 15.5115C22.8415 13.7804 19.1583 13.7805 16.7461 15.5115C11.5596 9.02059 16.2246 3.27574 20.3282 0.211523C20.732 -0.0705078 21.268 -0.0705078 21.6719 0.211523C22.8915 1.00074 27.6926 5.1752 27.5664 9.59434V9.59434Z" fill="black"/>
<path d="M33.2625 14.2202C30.7969 14.3928 28.6524 15.7522 27.4 17.7296C27.2672 17.5194 27.1235 17.3155 26.9703 17.1202C29.7798 13.7212 30.9673 9.10729 28.7266 4.80768C31.0664 4.59909 32.9985 4.93112 33.1156 4.95221C33.6 5.03737 33.9789 5.41706 34.0649 5.90143C34.1063 6.13346 34.861 10.5733 33.2625 14.2202V14.2202Z" fill="black"/>
</g>
<defs>
<clipPath id="clip0_0_1720">
<rect width="40" height="40" fill="white" transform="translate(0.5 0.5)"/>
</clipPath>
</defs>
</svg>
