<svg width="16" height="16" viewBox="0 0 16 16" fill="none" xmlns="http://www.w3.org/2000/svg">
<path d="M3.15176 6.19213C3.30356 6.29925 3.76114 6.61738 4.52452 7.14638C5.28792 7.67537 5.87273 8.08269 6.27899 8.36834C6.32363 8.39965 6.41845 8.46772 6.56352 8.57263C6.70861 8.67761 6.82917 8.76245 6.9251 8.82716C7.0211 8.89185 7.13715 8.96442 7.27337 9.04475C7.40955 9.12501 7.53792 9.18538 7.65845 9.22535C7.77901 9.26565 7.89061 9.28561 7.99327 9.28561H8H8.00675C8.10941 9.28561 8.22106 9.26562 8.34161 9.22535C8.4621 9.18538 8.59059 9.12494 8.72665 9.04475C8.86278 8.96432 8.97883 8.89183 9.07483 8.82716C9.17083 8.76245 9.29129 8.67761 9.43643 8.57263C9.58147 8.46763 9.67642 8.39965 9.72105 8.36834C10.1317 8.08269 11.1764 7.35721 12.8549 6.19199C13.1808 5.96441 13.4531 5.6898 13.6718 5.36835C13.8907 5.04705 14 4.70998 14 4.35734C14 4.06266 13.8939 3.8104 13.6818 3.6006C13.4698 3.39075 13.2186 3.28589 12.9285 3.28589H3.07138C2.72766 3.28589 2.46314 3.40194 2.27787 3.63405C2.09262 3.8662 2 4.15638 2 4.50457C2 4.78581 2.12281 5.09058 2.36831 5.41869C2.61378 5.74682 2.87502 6.00466 3.15176 6.19213Z" fill="black"/>
<path d="M13.3303 6.90849C11.8661 7.89947 10.7544 8.66963 9.99555 9.2188C9.74109 9.40622 9.53467 9.55253 9.37614 9.65738C9.21761 9.76229 9.00678 9.86943 8.74333 9.97875C8.47999 10.0882 8.23456 10.1428 8.00684 10.1428H8.00001H7.99328C7.76561 10.1428 7.52004 10.0882 7.25669 9.97875C6.99334 9.86943 6.78237 9.76229 6.62388 9.65738C6.46545 9.55253 6.25895 9.40622 6.00452 9.2188C5.40181 8.77687 4.29245 8.00666 2.67641 6.90849C2.42188 6.73896 2.19643 6.54464 2 6.32593V11.6427C2 11.9376 2.10487 12.1897 2.31471 12.3995C2.52451 12.6094 2.77679 12.7143 3.07145 12.7143H12.9286C13.2232 12.7143 13.4755 12.6094 13.6853 12.3995C13.8952 12.1896 14 11.9376 14 11.6427V6.32593C13.808 6.54012 13.5849 6.73444 13.3303 6.90849Z" fill="black"/>
</svg>
