<svg width="200" height="200" viewBox="0 0 200 200" fill="none" xmlns="http://www.w3.org/2000/svg">
<path d="M143.766 44.532C138.263 32.375 126.037 23.8961 111.86 23.8391C117.213 16.7605 125.618 12.1094 135.156 12.1094C138.395 12.1094 141.016 9.09805 141.016 5.85938C141.016 2.6207 138.395 0 135.156 0C118.857 0 104.864 10.0215 98.2547 23.8281H88.2812C74.0449 23.8281 61.759 32.3324 56.2355 44.5285C55.2707 46.6594 55.6641 49.1605 57.2391 50.8898C58.8141 52.6199 61.2676 53.2473 63.4789 52.4863C67.1832 51.2109 71.1363 50.7641 75.0176 51.1566C83.1543 51.9691 90.4215 56.3293 94.9477 63.1273C96.2992 65.152 98.0742 66.0027 100 66.0027C101.926 66.0027 103.701 65.152 105.053 63.1273C109.579 56.3297 116.846 51.9695 124.977 51.1566C128.805 50.7711 132.76 51.193 136.521 52.4891C138.733 53.25 141.186 52.6227 142.761 50.8934C144.336 49.1633 144.731 46.6625 143.766 44.532Z" fill="black"/>
<path d="M154.261 39.3578C154.316 39.475 154.391 39.5773 154.445 39.6953C157.335 46.1156 156.145 53.6 151.424 58.784C148.1 62.4348 143.362 64.5289 138.424 64.5289C133.105 64.5289 131.601 62.273 126.15 62.818C121.509 63.2816 117.378 65.759 114.809 69.6215C111.347 74.8 105.882 77.7184 100 77.7184C94.1184 77.7184 88.6535 74.8 85.3863 69.9137C82.6227 65.7594 78.4914 63.2816 73.8508 62.8184C71.6723 62.6051 69.4621 62.8234 67.282 63.568C60.6859 65.8488 53.291 63.9758 48.5652 58.7613C43.8387 53.5773 42.6602 46.0813 45.5668 39.684C45.6184 39.5695 45.6922 39.4699 45.7449 39.3555C26.0488 47.0645 12.1094 66.0668 12.1094 88.2812C12.1094 97.534 14.5414 106.643 19.159 114.631L59.0129 177.541C67.991 191.606 83.3145 200 100 200C116.686 200 132.009 191.606 140.987 177.541C142.945 174.475 178.971 117.716 180.853 114.62C185.459 106.643 187.891 97.534 187.891 88.2812C187.891 66.0695 173.954 47.0676 154.261 39.3578ZM53.125 105.859C49.8863 105.859 47.2656 103.239 47.2656 100V88.2812C47.2656 85.0426 49.8863 82.4219 53.125 82.4219C56.3637 82.4219 58.9844 85.0426 58.9844 88.2812V100C58.9844 103.239 56.3637 105.859 53.125 105.859ZM70.7031 135.156C70.7031 138.395 68.0824 141.016 64.8438 141.016C61.6051 141.016 58.9844 138.395 58.9844 135.156V123.438C58.9844 120.199 61.6051 117.578 64.8438 117.578C68.0824 117.578 70.7031 120.199 70.7031 123.438V135.156ZM105.859 158.594C105.859 161.832 103.239 164.453 100 164.453C96.7613 164.453 94.1406 161.832 94.1406 158.594V146.875C94.1406 143.636 96.7613 141.016 100 141.016C103.239 141.016 105.859 143.636 105.859 146.875V158.594ZM105.859 111.719C105.859 114.957 103.239 117.578 100 117.578C96.7613 117.578 94.1406 114.957 94.1406 111.719V100C94.1406 96.7613 96.7613 94.1406 100 94.1406C103.239 94.1406 105.859 96.7613 105.859 100V111.719ZM141.016 135.156C141.016 138.395 138.395 141.016 135.156 141.016C131.918 141.016 129.297 138.395 129.297 135.156V123.438C129.297 120.199 131.918 117.578 135.156 117.578C138.395 117.578 141.016 120.199 141.016 123.438V135.156ZM152.734 100C152.734 103.239 150.114 105.859 146.875 105.859C143.636 105.859 141.016 103.239 141.016 100V88.2812C141.016 85.0426 143.636 82.4219 146.875 82.4219C150.114 82.4219 152.734 85.0426 152.734 88.2812V100Z" fill="black"/>
</svg>
