<svg width="200" height="200" viewBox="0 0 200 200" fill="none" xmlns="http://www.w3.org/2000/svg">
<path d="M115.78 188.327H105.838V176.542C104.409 176.193 102.983 175.788 101.562 175.325C101.437 175.285 101.315 175.24 101.194 175.192L100.001 174.713L98.8096 175.192C98.6885 175.241 98.5658 175.285 98.4416 175.325C97.0205 175.789 95.594 176.192 94.1647 176.54V188.327H84.2225C80.9991 188.327 78.3858 190.94 78.3858 194.163C78.3858 197.387 80.9991 200 84.2225 200H115.78C119.004 200 121.617 197.387 121.617 194.163C121.617 190.94 119.004 188.327 115.78 188.327Z" fill="black"/>
<path d="M154.137 89.2901C152.772 87.7561 152.314 85.6147 152.933 83.6537C158.419 66.2639 148.776 47.5167 131.436 41.8644C131.436 41.8644 131.436 41.8644 131.436 41.864C130.025 41.4038 128.581 41.0366 127.128 40.7667C126.678 40.6831 126.226 40.6089 125.775 40.5441C124.278 40.3296 122.88 39.5964 121.936 38.4144C120.31 36.3781 120.24 33.6085 121.611 31.5324C122.605 30.0273 123.391 28.3999 123.946 26.6964C125.603 21.6148 125.181 16.1922 122.759 11.4277C120.337 6.66327 116.205 3.12734 111.123 1.4707C103.838 -0.490233 96.1635 -0.490233 88.878 1.4707C78.3881 4.89022 72.6362 16.2066 76.0557 26.696C76.6003 28.3664 77.3659 29.9624 78.3319 31.4425C79.1507 32.6968 79.5315 34.2074 79.2839 35.6847C78.8499 38.2753 76.8092 40.182 74.3296 40.5292C72.3866 40.8015 70.4472 41.2499 68.5655 41.8632C51.2257 47.5159 41.5828 66.2628 47.0695 83.653C47.6882 85.6139 47.2296 87.7549 45.8628 89.2901C34.9257 101.575 31.2941 118.907 36.3839 134.521C43.5839 156.608 65.8979 169.625 88.1491 165.866L61.0858 133.101C59.0331 130.615 59.3835 126.937 61.869 124.884C64.3542 122.832 68.0331 123.182 70.0858 125.667L94.1635 154.818V127C93.9987 126.829 93.8416 126.648 93.6952 126.454L73.1636 99.3033C71.2194 96.7318 71.7272 93.0713 74.2987 91.1276C76.8698 89.1826 80.5303 89.6916 82.4745 92.2623L94.1635 107.72V54.8421C94.1635 51.6991 96.5787 48.9952 99.7178 48.8472C103.07 48.6894 105.837 51.3601 105.837 54.6772V107.72L117.526 92.2623C119.47 89.6912 123.13 89.1823 125.701 91.1272C128.272 93.0713 128.781 96.7318 126.836 99.3025L106.305 126.454C106.158 126.647 106.001 126.829 105.837 126.999V154.818L129.914 125.667C131.967 123.182 135.646 122.831 138.131 124.884C140.616 126.937 140.967 130.615 138.914 133.101L111.855 165.862C114.415 166.294 116.975 166.512 119.512 166.513C139.039 166.515 157.244 154.068 163.616 134.521C168.706 118.906 165.074 101.575 154.137 89.2901Z" fill="black"/>
</svg>
