<svg width="17" height="16" viewBox="0 0 17 16" fill="none" xmlns="http://www.w3.org/2000/svg">
<path d="M16.3214 7.7477L14.1032 6.9714C13.218 6.66143 12.2449 6.72354 11.4063 7.14342C10.5677 7.5633 9.93479 8.30486 9.65233 9.19917L9.07187 11.0372L8.50039 11.4657V7.62735C8.49985 7.11571 8.75588 6.63773 9.18178 6.3546L9.1789 6.35032C9.19423 6.34215 9.20875 6.33224 9.22214 6.3212C10.2934 5.24992 10.853 3.77007 10.7589 2.25802L10.6337 0.249928C10.6258 0.123556 10.5302 0.0202099 10.4049 0.00233845C10.2799 -0.0141943 10.1601 0.0582955 10.1167 0.176769L9.25427 2.59049C8.93185 3.49222 8.76699 4.44256 8.76712 5.40025V6.00105C8.26304 6.38987 7.96752 6.99074 7.96712 7.62755V8.15587L7.69604 7.88452C7.65039 5.90192 6.36485 4.16103 4.48279 3.53473L2.71847 2.94825C2.62724 2.91766 2.52677 2.93874 2.45535 3.00293C2.384 3.06753 2.35267 3.16532 2.37369 3.25923L2.66706 4.58218C3.13681 6.74088 5.0526 8.27702 7.26197 8.26597H7.32355L7.96712 8.90968V14.7674L7.43386 14.5006V13.9522C7.43386 12.6109 6.78895 11.3511 5.70073 10.567C4.61231 9.7827 3.21345 9.56925 1.94089 9.99355L0.683266 10.4128C0.573895 10.4488 0.5 10.5509 0.5 10.6661C0.5 10.7812 0.573895 10.8834 0.683266 10.9194L0.969009 11.0147C2.33755 11.4697 3.61485 12.1642 4.74069 13.0658L7.00039 14.8735C7.01585 14.8842 7.03225 14.8931 7.04959 14.9002L7.04798 14.9038L7.96712 15.3639V15.9988H8.50039V12.1324L9.46043 11.4123L9.45755 11.4086C9.46846 11.4023 9.4789 11.3952 9.48887 11.3876C11.1777 9.70459 13.3768 8.62909 15.7419 8.32936L16.2666 8.2639C16.3894 8.2483 16.4854 8.15038 16.4985 8.02749C16.5116 7.9044 16.4383 7.78853 16.3214 7.7477Z" fill="black"/>
</svg>
