<svg width="16" height="16" viewBox="0 0 16 16" fill="none" xmlns="http://www.w3.org/2000/svg">
<g clip-path="url(#clip0_0_2552)">
<g clip-path="url(#clip1_0_2552)">
<path d="M10.2909 8.50758C10.2909 8.73352 10.255 8.95102 10.1884 9.15477C9.85396 9.21867 9.53168 9.33983 9.2359 9.51102C8.8159 9.75602 8.45965 10.0998 8.19996 10.5095C7.7609 9.8103 7.0234 9.30649 6.21153 9.15477C5.76125 7.83158 6.8015 6.39833 8.19999 6.41792C9.35559 6.41789 10.2909 7.35445 10.2909 8.50758Z" fill="black"/>
<path d="M7.73123 12.1275C7.73123 13.2817 6.79495 14.2173 5.64017 14.2173C3.49508 14.1966 2.76867 11.39 4.58989 10.3203C4.59304 10.3187 4.59589 10.3168 4.59905 10.3149C5.20283 9.94944 6.0772 9.94932 6.68095 10.3149C7.30886 10.6757 7.73111 11.3523 7.73123 12.1275Z" fill="black"/>
<path d="M12.8511 12.1275C12.8511 13.2816 11.9148 14.2173 10.7597 14.2173C8.60913 14.1958 7.88788 11.3787 9.71894 10.3149C10.3227 9.94932 11.1971 9.94944 11.8008 10.3149C11.804 10.3168 11.8068 10.3187 11.81 10.3203C12.4327 10.6822 12.8511 11.356 12.8511 12.1275Z" fill="black"/>
<path d="M15.4109 8.5076C15.4109 9.64385 14.5031 10.5685 13.3731 10.5967C13.3728 10.596 13.3725 10.5957 13.3722 10.5951C13.1084 10.1463 12.7312 9.77135 12.2812 9.50979C12.2806 9.50948 12.2803 9.50916 12.2797 9.50885C12.2759 9.50666 12.2718 9.50448 12.2681 9.50198C11.9772 9.33479 11.66 9.2176 11.3312 9.15479C10.8815 7.83298 11.919 6.39879 13.32 6.41791C14.4747 6.41791 15.4109 7.35354 15.4109 8.5076Z" fill="black"/>
<path d="M5.1712 8.50741C5.1712 8.73335 5.13527 8.95085 5.0687 9.1546C4.73995 9.21741 4.42277 9.3346 4.13183 9.50179C4.12808 9.50429 4.12402 9.50647 4.12027 9.50866C4.11964 9.50897 4.11933 9.50929 4.1187 9.5096C3.6687 9.77116 3.29151 10.1462 3.02776 10.5949C3.02745 10.5955 3.02714 10.5958 3.02683 10.5965C1.89683 10.5683 0.989014 9.64366 0.989014 8.50741C0.989014 7.35335 1.92526 6.41772 3.07995 6.41772C4.23495 6.41772 5.1712 7.35335 5.1712 8.50741Z" fill="black"/>
<path d="M6.10876 14.9622V15.3312C6.10876 15.59 5.89908 15.8 5.64001 15.8C5.38126 15.8 5.17126 15.59 5.17126 15.3312V14.9622C5.47526 15.0103 5.80461 15.0103 6.10876 14.9622Z" fill="black"/>
<path d="M11.2288 14.9622V15.3312C11.2288 15.59 11.0188 15.8 10.76 15.8C10.5009 15.8 10.2913 15.59 10.2913 15.3312V14.9622C10.5954 15.0103 10.9248 15.0103 11.2288 14.9622Z" fill="black"/>
<path d="M5.8118 6.64822C5.75055 6.72634 5.69305 6.80791 5.64024 6.89197C5.13899 6.10103 4.28118 5.55728 3.29493 5.48822C2.65555 4.02947 2.95743 2.25353 2.97399 2.16072C3.00836 1.96697 3.15993 1.81509 3.35368 1.78103C3.40055 1.77259 4.17305 1.63978 5.10899 1.72322C4.21299 3.44294 4.68855 5.28994 5.8118 6.64822Z" fill="black"/>
<path d="M10.8265 3.63778C10.8265 4.53903 10.4102 5.35028 9.90148 6.00466C8.93651 5.31219 7.46326 5.31225 6.49836 6.00466C4.42376 3.40828 6.28976 1.11035 7.9312 -0.115342C8.09273 -0.228154 8.30711 -0.228154 8.4687 -0.115342C8.95651 0.200346 10.877 1.87013 10.8265 3.63778Z" fill="black"/>
<path d="M13.105 5.48822C12.1188 5.55728 11.2609 6.10103 10.76 6.89197C10.7069 6.80791 10.6494 6.72634 10.5881 6.64822C11.7119 5.28862 12.1869 3.44306 11.2906 1.72322C12.2266 1.63978 12.9994 1.77259 13.0463 1.78103C13.24 1.81509 13.3916 1.96697 13.4259 2.16072C13.4425 2.25353 13.7444 4.02947 13.105 5.48822Z" fill="black"/>
</g>
</g>
<defs>
<clipPath id="clip0_0_2552">
<rect width="16" height="16" fill="white"/>
</clipPath>
<clipPath id="clip1_0_2552">
<rect width="16" height="16" fill="white" transform="translate(0.199951 -0.199951)"/>
</clipPath>
</defs>
</svg>
