<svg width="200" height="200" viewBox="0 0 200 200" fill="none" xmlns="http://www.w3.org/2000/svg">
<g clip-path="url(#clip0_0_2417)">
<path d="M60.0764 69.3448C54.1986 69.3448 48.2963 70.6141 47.911 70.9028C41.9697 75.3184 36.5283 81.0642 32.1025 87.8103C4.97325 130.395 25.7594 186.5 67.8257 197.959C95.3003 193.627 116.535 166.575 116.535 133.956C116.535 98.3291 91.2063 69.3448 60.0764 69.3448Z" fill="black"/>
<path d="M102.816 60.8952V43.4845C102.816 26.42 112.02 17.969 120.686 7.85796L111.515 0C103.174 9.72906 99.105 13.7458 95.3285 22.1247C93.1426 18.9082 90.6105 15.8367 87.7765 12.9986C70.5631 -4.2148 38.0967 1.88398 36.7239 2.15369L32.7305 2.93063L31.9536 6.92402C31.6839 8.29675 25.5891 40.7591 42.7986 57.9766C43.2575 58.4315 43.7204 58.8824 44.1874 59.3212C88.0889 47.7448 128.612 85.271 128.612 133.956C128.612 161.027 116.198 184.392 97.8244 198.003C98.5611 197.806 99.2978 197.592 100.026 197.363C139.592 209.775 180.108 176.908 180.108 129.528C180.108 83.428 141.669 50.8187 102.816 60.8952Z" fill="black"/>
</g>
<defs>
<clipPath id="clip0_0_2417">
<rect width="200" height="200" fill="white"/>
</clipPath>
</defs>
</svg>
