<svg width="16" height="16" viewBox="0 0 16 16" fill="none" xmlns="http://www.w3.org/2000/svg">
<g clip-path="url(#clip0_0_2573)">
<g clip-path="url(#clip1_0_2573)">
<path d="M8.19057 1.00829C8.05439 0.250101 6.98629 -0.192524 5.80492 0.0196634C4.91126 0.180163 3.84823 1.18198 3.38345 1.66044C3.32601 1.71957 3.30061 1.80282 3.3152 1.88398C3.32979 1.96513 3.38258 2.03429 3.45701 2.06969C4.05926 2.35654 5.40445 2.92582 6.29807 2.76532C7.47942 2.55316 8.32676 1.76651 8.19057 1.00829Z" fill="black"/>
<path d="M12.0099 8.16122C11.3073 7.31866 10.9212 6.25626 10.9212 5.15922C10.9212 4.03697 10.1787 3.08841 9.15832 2.77716C9.40492 2.34872 9.91188 1.60854 10.658 1.20004C10.7886 1.12847 10.8474 0.971911 10.7956 0.832223L10.4853 -0.00399567C10.4539 -0.0885269 10.3862 -0.154496 10.3009 -0.183714C10.2156 -0.212964 10.1218 -0.202308 10.0451 -0.154871C9.5141 0.173723 8.4946 1.01232 8.33182 2.67141C7.00245 2.72347 5.94057 3.81707 5.94057 5.15922C5.94057 6.25869 5.55601 7.31679 4.85188 8.16119C4.17829 8.96894 3.77307 10.0083 3.77307 11.1423C3.77307 13.7147 5.85848 15.8001 8.43088 15.8001C11.0033 15.8001 13.0887 13.7147 13.0887 11.1423C13.0887 10.0082 12.6834 8.96898 12.0099 8.16122Z" fill="black"/>
</g>
</g>
<defs>
<clipPath id="clip0_0_2573">
<rect width="16" height="16" fill="white"/>
</clipPath>
<clipPath id="clip1_0_2573">
<rect width="16" height="16" fill="white" transform="translate(0.199951 -0.199951)"/>
</clipPath>
</defs>
</svg>
