<svg width="16" height="16" viewBox="0 0 16 16" fill="none" xmlns="http://www.w3.org/2000/svg">
<path d="M8.16309 2C4.87418 2 3.12509 4.1076 3.12509 6.40571C3.12509 7.47152 3.72062 8.80058 4.67392 9.2221C4.81867 9.28735 4.89743 9.2596 4.92968 9.12535C4.95818 9.02334 5.08344 8.53207 5.14419 8.3003C5.16294 8.22605 5.15319 8.16155 5.09319 8.09179C4.77667 7.72578 4.52541 7.059 4.52541 6.43346C4.52541 4.83064 5.79972 3.27431 7.96808 3.27431C9.84317 3.27431 11.155 4.49237 11.155 6.23471C11.155 8.20355 10.1132 9.56562 8.75936 9.56562C8.01008 9.56562 7.45205 8.97759 7.62906 8.25005C7.84282 7.38376 8.26209 6.45222 8.26209 5.82744C8.26209 5.26716 7.94557 4.80364 7.29904 4.80364C6.53626 4.80364 5.91748 5.55892 5.91748 6.57297C5.91748 7.21725 6.14549 7.65227 6.14549 7.65227C6.14549 7.65227 5.39095 10.7004 5.25069 11.2697C5.01368 12.2335 5.28295 13.7943 5.3062 13.9286C5.32045 14.0028 5.4037 14.0261 5.4502 13.9653C5.52446 13.8678 6.4365 12.5665 6.69226 11.626C6.78527 11.2832 7.16704 9.89338 7.16704 9.89338C7.4183 10.3472 8.14358 10.7274 8.91612 10.7274C11.2142 10.7274 12.8748 8.70757 12.8748 6.20095C12.8666 3.79784 10.81 2 8.16309 2Z" fill="black"/>
</svg>
