<svg width="20" height="16" viewBox="0 0 20 16" fill="none" xmlns="http://www.w3.org/2000/svg">
<path d="M0.515478 12.1455C0.515478 14.1818 2.39227 16 4.41344 16C6.65116 16 8.45577 14.1091 8.45577 12.0727C8.45577 10.4 7.37301 8.94545 5.92932 8.36364C-0.567289 5.6 6.9399 0 6.9399 0H6.57898C0.37111 4.8 0.443294 11.1273 0.515478 12.1455ZM11.5597 12.1455C11.5597 14.1818 13.4365 16 15.4577 16C17.6954 16 19.5 14.1091 19.5 12.0727C19.5 10.4 18.4894 8.94545 16.9735 8.36364C10.5491 5.6 17.9841 0 17.9841 0H17.6232C11.4153 4.8 11.4875 11.1273 11.5597 12.1455Z" fill="#BB6B1E"/>
</svg>
